<svg width="640" height="480" viewBox="0 0 640 480" fill="none" xmlns="http://www.w3.org/2000/svg">
  <rect width="640" height="480" rx="28" fill="#EAF2FF"/>
  <circle cx="525" cy="100" r="82" fill="#CFE1FF"/>
  <circle cx="103" cy="392" r="120" fill="#D9E8FF"/>
  <rect x="102" y="72" width="437" height="328" rx="20" fill="white" stroke="#D4E4FF"/>
  <rect x="136" y="116" width="168" height="10" rx="5" fill="#0D2546"/>
  <rect x="136" y="140" width="100" height="10" rx="5" fill="#5E87C2"/>
  <rect x="136" y="183" width="369" height="56" rx="14" fill="#F5F9FF"/>
  <rect x="154" y="203" width="116" height="10" rx="5" fill="#2A5FA1"/>
  <rect x="136" y="255" width="238" height="126" rx="16" fill="#0D2546"/>
  <rect x="392" y="255" width="113" height="126" rx="16" fill="#EDF4FF"/>
  <rect x="412" y="278" width="72" height="9" rx="4.5" fill="#0D2546"/>
  <rect x="412" y="301" width="52" height="9" rx="4.5" fill="#5E87C2"/>
  <path d="M164 337L199 301L222 327L266 287L309 340" stroke="#8FC0FF" stroke-width="8" stroke-linecap="round"/>
</svg>
