<svg width="640" height="480" viewBox="0 0 640 480" fill="none" xmlns="http://www.w3.org/2000/svg">
  <rect width="640" height="480" rx="28" fill="#F0F6FF"/>
  <rect x="62" y="58" width="516" height="364" rx="24" fill="white" stroke="#D4E4FF"/>
  <rect x="94" y="92" width="120" height="12" rx="6" fill="#0D2546"/>
  <rect x="94" y="118" width="80" height="10" rx="5" fill="#6F94C8"/>
  <rect x="94" y="160" width="215" height="232" rx="18" fill="#0D2546"/>
  <rect x="330" y="160" width="216" height="108" rx="18" fill="#EAF2FF"/>
  <rect x="330" y="284" width="216" height="108" rx="18" fill="#EAF2FF"/>
  <rect x="350" y="188" width="96" height="10" rx="5" fill="#0D2546"/>
  <rect x="350" y="212" width="72" height="10" rx="5" fill="#4E76AD"/>
  <rect x="350" y="312" width="114" height="10" rx="5" fill="#0D2546"/>
  <rect x="350" y="336" width="85" height="10" rx="5" fill="#4E76AD"/>
  <circle cx="166" cy="243" r="41" fill="#2A5FA1"/>
  <path d="M166 221V243L182 251" stroke="white" stroke-width="7" stroke-linecap="round"/>
  <rect x="126" y="302" width="80" height="10" rx="5" fill="#8FC0FF"/>
  <rect x="126" y="326" width="56" height="10" rx="5" fill="#8FC0FF"/>
</svg>
